<svg width="56" height="49" viewBox="0 0 56 49" fill="none" xmlns="http://www.w3.org/2000/svg">
<path d="M21.8722 13.0829C19.8422 13.1513 18.0071 13.7852 17.0259 14.6448C16.9175 14.7396 16.7889 14.8147 16.6473 14.866C16.5057 14.9173 16.3539 14.9436 16.2007 14.9436C16.0474 14.9435 15.8957 14.9171 15.7541 14.8657C15.6126 14.8144 15.484 14.7391 15.3757 14.6443C15.2673 14.5494 15.1814 14.4368 15.1228 14.3129C15.0643 14.189 15.0341 14.0563 15.0342 13.9222C15.0342 13.7881 15.0645 13.6553 15.1232 13.5315C15.1819 13.4076 15.2679 13.2951 15.3762 13.2003C16.8894 11.8763 19.3534 11.1249 21.7812 11.0423C24.2254 10.9596 26.8936 11.5445 28.7626 13.1799C28.9813 13.3714 29.1042 13.6312 29.1041 13.902C29.104 14.1728 28.9809 14.4324 28.762 14.6239C28.5431 14.8153 28.2462 14.9227 27.9368 14.9227C27.6273 14.9226 27.3305 14.8149 27.1117 14.6233C25.8401 13.5096 23.8871 13.0135 21.8722 13.0819" fill="#1E1E1E"/>
<path fill-rule="evenodd" clip-rule="evenodd" d="M31.948 29.5388C29.2142 31.5628 25.7477 32.6713 22.1667 32.6667C13.79 32.6667 7 26.7254 7 19.3958C7 12.0662 13.79 6.125 22.1667 6.125C30.5433 6.125 37.3333 12.0662 37.3333 19.3958C37.3333 22.6574 35.9893 25.6433 33.7587 27.9545L36.3347 27.5625L48.3327 38.0607C49.2228 38.8396 49.2228 40.1024 48.3327 40.8803L46.7203 42.2911C45.8302 43.07 44.387 43.07 43.498 42.2911L31.5 31.7928L31.948 29.5388ZM35 19.3958C35 25.5974 29.2542 30.625 22.1667 30.625C15.0792 30.625 9.33333 25.5974 9.33333 19.3958C9.33333 13.1943 15.0792 8.16667 22.1667 8.16667C29.2542 8.16667 35 13.1943 35 19.3958ZM43.4572 36.6816L35.5413 29.7552L34.2347 29.9543L34.006 31.0987L41.9452 38.0454L43.4572 36.6816ZM43.5948 39.4889L45.1092 40.8139L46.6445 39.4705L45.1068 38.1251L43.5948 39.4889Z" fill="#1E1E1E"/>
</svg>
